<svg width="42" height="42" viewBox="0 0 42 42" fill="none" xmlns="http://www.w3.org/2000/svg">
<path d="M21 42C32.598 42 42 32.598 42 21C42 9.40202 32.598 0 21 0C9.40202 0 0 9.40202 0 21C0 32.598 9.40202 42 21 42Z" fill="#3C80AD"/>
<path d="M14.1345 10.8075C8.8354 10.841 4.54492 15.1616 4.54492 20.4796C4.54492 25.8185 8.86855 30.1511 14.1965 30.1511C16.6957 30.1511 18.9751 29.1964 20.69 27.6311L20.6897 27.6307H20.691C21.0428 27.3101 21.3704 26.9632 21.6712 26.5948H19.6943C19.43 26.2755 19.19 25.9419 18.9745 25.598H22.3842C22.5925 25.2658 22.7795 24.9206 22.947 24.5632H18.4122C18.2574 24.2309 18.123 23.8923 18.0086 23.5471H23.3505C23.6732 22.5829 23.8473 21.551 23.8473 20.4796C23.8473 19.768 23.77 19.0756 23.6251 18.4078H17.7251C17.7988 18.0639 17.8906 17.7247 18 17.3921H23.3446C23.2252 17.0373 23.0863 16.6921 22.9285 16.3565H18.4116C18.5743 16.0074 18.759 15.6689 18.965 15.3405H22.3727C22.1456 14.9781 21.8949 14.6319 21.624 14.3056H19.724C20.0181 13.9584 20.341 13.6319 20.6915 13.3291C18.9772 11.7631 16.6976 10.8078 14.197 10.8078C14.1753 10.8075 14.1547 10.8075 14.1345 10.8075Z" fill="#931B1D"/>
<path d="M36.7933 20.4826C36.7943 25.8236 32.4758 30.1545 27.1441 30.1561C21.8147 30.1578 17.4928 25.8285 17.4912 20.4866V20.4826C17.4895 15.1401 21.8095 10.8088 27.1398 10.8075C32.4698 10.8055 36.7921 15.1351 36.7934 20.4773C36.7933 20.4773 36.7933 20.4797 36.7933 20.4826Z" fill="#F16622"/>
<path d="M36.7933 20.5894C36.7943 25.9307 32.4758 30.2623 27.1441 30.2632C21.8147 30.2652 17.4928 25.9354 17.4912 20.5944V20.5894C17.4895 15.2478 21.8095 10.9162 27.1398 10.9149C32.4698 10.913 36.7921 15.2425 36.7934 20.5844C36.7933 20.5845 36.7933 20.5875 36.7933 20.5894Z" fill="#F7981D"/>
<path d="M14.1345 10.9173C8.8354 10.9514 4.54492 15.2711 4.54492 20.5895C4.54492 25.9287 8.86855 30.2616 14.1965 30.2616C16.6957 30.2616 18.9751 29.3063 20.69 27.7412L20.6897 27.7402H20.691C21.0428 27.4198 21.3704 27.074 21.6712 26.7043H19.6943C19.43 26.3857 19.19 26.0527 18.9745 25.7089H22.3842C22.5925 25.3763 22.7795 25.0301 22.947 24.673H18.4122C18.2574 24.3404 18.123 24.0019 18.0086 23.6573H23.3505C23.6732 22.6924 23.8473 21.6609 23.8473 20.5895C23.8473 19.8782 23.77 19.1855 23.6251 18.518H17.7251C17.7988 18.1745 17.8906 17.8346 18 17.5023H23.3446C23.2252 17.1472 23.0863 16.802 22.9285 16.4661H18.4116C18.5743 16.1183 18.759 15.7784 18.965 15.4504H22.3727C22.1456 15.0883 21.8949 14.7425 21.624 14.4148H19.724C20.0181 14.0683 20.341 13.7417 20.6915 13.4384C18.9772 11.8725 16.6976 10.9172 14.197 10.9172C14.1753 10.9173 14.1547 10.9173 14.1345 10.9173Z" fill="#CB2026"/>
<path d="M17.6679 23.0518L17.797 22.1767C17.7267 22.1767 17.6232 22.2065 17.532 22.2065C17.1745 22.2065 17.1347 22.0162 17.1579 21.8753L17.4468 20.089H17.9903L18.1216 19.1204H17.6093L17.7138 18.5189H16.6859C16.6636 18.5414 16.0791 21.9054 16.0791 22.3142C16.0791 22.9207 16.4183 23.1909 16.8978 23.1869C17.2724 23.1835 17.5652 23.0797 17.6679 23.0518Z" fill="white"/>
<path d="M17.9932 21.383C17.9932 22.8383 18.9511 23.1845 19.7678 23.1845C20.5219 23.1845 20.8532 23.0151 20.8532 23.0151L21.0346 22.0216C21.0346 22.0216 20.4613 22.2763 19.9433 22.2763C18.8401 22.2763 19.0335 21.4514 19.0335 21.4514H21.1221C21.1221 21.4514 21.2564 20.7835 21.2564 20.5117C21.2564 19.8336 20.9188 19.0066 19.7911 19.0066C18.7575 19.0068 17.9932 20.1219 17.9932 21.383ZM19.7954 19.9283C20.3751 19.9283 20.2679 20.5815 20.2679 20.6342H19.1272C19.1269 20.567 19.2347 19.9283 19.7954 19.9283Z" fill="white"/>
<path d="M26.3019 23.0518L26.4859 21.928C26.4859 21.928 25.9816 22.1827 25.6357 22.1827C24.9069 22.1827 24.6147 21.6236 24.6147 21.0254C24.6147 19.8092 25.2418 19.14 25.9405 19.14C26.4638 19.14 26.8842 19.4351 26.8842 19.4351L27.0517 18.3448C27.0517 18.3448 26.4286 18.0915 25.8948 18.0915C24.7083 18.0915 23.5537 19.1217 23.5537 21.0602C23.5537 22.3435 24.1774 23.1926 25.4036 23.1926C25.75 23.1928 26.3019 23.0518 26.3019 23.0518Z" fill="white"/>
<path d="M12.0157 19.0224C11.3111 19.0224 10.7709 19.2489 10.7709 19.2489L10.622 20.1363C10.622 20.1363 11.0683 19.9552 11.7418 19.9552C12.1245 19.9552 12.404 19.998 12.404 20.31C12.404 20.4991 12.3699 20.569 12.3699 20.569C12.3699 20.569 12.0685 20.5435 11.9285 20.5435C11.0402 20.5435 10.1064 20.9235 10.1064 22.0701C10.1064 22.9727 10.7185 23.1802 11.0983 23.1802C11.8234 23.1802 12.1351 22.709 12.1524 22.707L12.1185 23.1009H13.0231L13.427 20.2641C13.427 19.0611 12.3794 19.0224 12.0157 19.0224ZM12.2362 21.3309C12.2558 21.5044 12.1275 22.3167 11.5087 22.3167C11.1897 22.3167 11.1065 22.072 11.1065 21.9274C11.1065 21.6459 11.2594 21.3074 12.0127 21.3074C12.1875 21.3074 12.2064 21.3266 12.2362 21.3309Z" fill="white"/>
<path d="M14.3883 23.1586C14.6194 23.1586 15.9425 23.218 15.9425 21.8498C15.9425 20.5705 14.7179 20.8229 14.7179 20.3089C14.7179 20.0539 14.9176 19.9723 15.2823 19.9723C15.4272 19.9723 15.9846 20.0191 15.9846 20.0191L16.1146 19.1093C16.1146 19.1093 15.7538 19.029 15.1669 19.029C14.4059 19.029 13.6349 19.332 13.6349 20.3729C13.6349 21.553 14.9215 21.4336 14.9215 21.9303C14.9215 22.262 14.5617 22.2892 14.2845 22.2892C13.8057 22.2892 13.3743 22.1243 13.3723 22.1319L13.2354 23.0315C13.2593 23.0399 13.5258 23.1586 14.3883 23.1586Z" fill="white"/>
<path d="M34.8139 18.2063L34.5927 19.5844C34.5927 19.5844 34.2057 19.0496 33.6006 19.0496C32.6586 19.0496 31.874 20.187 31.874 21.4944C31.874 22.3384 32.2921 23.1644 33.1484 23.1644C33.7641 23.1644 34.1046 22.7343 34.1046 22.7343L34.0599 23.1014H35.0593L35.8449 18.2041L34.8139 18.2063ZM34.337 20.8946C34.337 21.4381 34.0678 22.1639 33.511 22.1639C33.1409 22.1639 32.9682 21.8528 32.9682 21.3647C32.9682 20.5669 33.3257 20.039 33.7766 20.039C34.147 20.039 34.337 20.2944 34.337 20.8946Z" fill="white"/>
<path d="M6.45108 23.1056L7.07743 19.4083L7.16862 23.1056H7.87687L9.19755 19.4083L8.61231 23.1056H9.66413L10.4749 18.203H8.84786L7.83486 21.2106L7.78213 18.203H6.28297L5.46094 23.1056H6.45108Z" fill="white"/>
<path d="M22.2837 23.1125C22.5828 21.4085 22.6382 20.024 23.3524 20.2764C23.4775 19.6172 23.5978 19.3622 23.7338 19.0827C23.7338 19.0827 23.6701 19.0692 23.5354 19.0692C23.0762 19.0692 22.7349 19.6992 22.7349 19.6992L22.8258 19.1208H21.8688L21.2285 23.1125H22.2837Z" fill="white"/>
<path d="M28.673 19.0224C27.9684 19.0224 27.4285 19.2489 27.4285 19.2489L27.28 20.1363C27.28 20.1363 27.7253 19.9552 28.3994 19.9552C28.7817 19.9552 29.0619 19.998 29.0619 20.31C29.0619 20.4991 29.0274 20.569 29.0274 20.569C29.0274 20.569 28.726 20.5435 28.5851 20.5435C27.6964 20.5435 26.7637 20.9235 26.7637 22.0701C26.7637 22.9727 27.3761 23.1802 27.7555 23.1802C28.4807 23.1802 28.7927 22.709 28.8093 22.707L28.7758 23.1009H29.681L30.0846 20.2641C30.0849 19.0611 29.0377 19.0224 28.673 19.0224ZM28.8938 21.3309C28.9134 21.5044 28.7857 22.3167 28.166 22.3167C27.8473 22.3167 27.7647 22.072 27.7647 21.9274C27.7647 21.6459 27.9176 21.3074 28.6696 21.3074C28.8454 21.3074 28.8637 21.3266 28.8938 21.3309Z" fill="white"/>
<path d="M30.9105 23.1125C31.2099 21.4085 31.2653 20.024 31.9795 20.2764C32.1045 19.6172 32.2249 19.3622 32.3615 19.0827C32.3615 19.0827 32.2968 19.0692 32.1629 19.0692C31.7024 19.0692 31.3622 19.6992 31.3622 19.6992L31.4537 19.1208H30.4961L29.8555 23.1122H30.9106L30.9105 23.1125Z" fill="white"/>
</svg>
