<svg width="42" height="42" viewBox="0 0 42 42" fill="none" xmlns="http://www.w3.org/2000/svg">
<path d="M20.9991 42C32.5966 42 41.9982 32.5984 41.9982 21.0009C41.9982 9.4034 32.5966 0.00177002 20.9991 0.00177002C9.40162 0.00177002 0 9.4034 0 21.0009C0 32.5984 9.40162 42 20.9991 42Z" fill="#F3F2F2"/>
<path d="M15.5498 25.0291L17.1567 15.5407H19.7581L18.1514 25.0291H15.5498Z" fill="#293688"/>
<path d="M27.4125 15.786C26.8969 15.5937 26.0892 15.3877 25.0805 15.3877C22.5094 15.3877 20.6984 16.675 20.6828 18.5191C20.6685 19.8822 21.9756 20.6425 22.963 21.0968C23.9756 21.5609 24.3162 21.8588 24.3112 22.2736C24.3049 22.9096 23.5021 23.2003 22.7541 23.2003C21.713 23.2 21.1596 23.0564 20.3051 22.7023L19.9699 22.5511L19.6045 24.6752C20.2123 24.9402 21.3363 25.17 22.5031 25.1816C25.2376 25.1809 27.0135 23.9097 27.0334 21.9398C27.0434 20.8605 26.35 20.0391 24.849 19.3618C23.9395 18.9234 23.3824 18.6306 23.3884 18.1857C23.3884 17.7914 23.8602 17.3697 24.8785 17.3697C25.7293 17.3564 26.3457 17.5408 26.8262 17.7331L27.059 17.8426L27.4125 15.786Z" fill="#293688"/>
<path d="M31.8477 15.5407C31.2243 15.5407 30.774 15.731 30.5001 16.3488L26.6445 25.0294H29.399L29.9345 23.5754H33.2254L33.5311 25.0294H35.9798L33.8375 15.541H31.8477L31.8477 15.5407ZM30.6653 21.6768C30.8802 21.1304 31.7014 19.0249 31.7014 19.0249C31.6866 19.0498 31.9153 18.4758 32.0466 18.1197L32.2227 18.9373C32.2227 18.9373 32.7203 21.2023 32.8248 21.6771H30.6653V21.6768Z" fill="#293688"/>
<path d="M10.8054 22.0449L10.5762 20.7441C10.1014 19.2278 8.62782 17.5872 6.97656 16.7652L9.27506 25.0291H12.0301L16.1619 15.5407H13.4074L10.8054 22.0449Z" fill="#293688"/>
<path d="M4.14746 15.5407V15.6939C7.41186 16.479 9.67819 18.4639 10.5754 20.7442L9.63211 16.3505C9.47465 15.75 8.99745 15.5616 8.4328 15.5408L4.14746 15.5407Z" fill="#F7981D"/>
<path d="M20.9972 41.9998C29.1023 41.9998 36.13 37.4055 39.6304 30.6815H2.36426C5.865 37.4055 12.8924 41.9998 20.9972 41.9998Z" fill="#F7981D"/>
<path d="M20.9981 0C13.0217 0 6.08409 4.44706 2.5293 10.9974H39.4676C35.9124 4.44742 28.9745 0 20.9981 0Z" fill="#293688"/>
</svg>
