<svg width="18" height="20" viewBox="0 0 18 20" fill="none" xmlns="http://www.w3.org/2000/svg">
<path d="M12.7833 8.59362C12.7833 8.16214 12.432 7.81238 11.9987 7.81238H3.9183C3.48501 7.81238 3.13379 8.16214 3.13379 8.59362C3.13379 9.0251 3.48501 9.37486 3.9183 9.37486H11.9987C12.432 9.37486 12.7833 9.0251 12.7833 8.59362Z" fill="#184A8F"/>
<path d="M3.9183 10.9375C3.48501 10.9375 3.13379 11.2873 3.13379 11.7188C3.13379 12.1502 3.48501 12.5 3.9183 12.5H8.82585C9.25913 12.5 9.61036 12.1502 9.61036 11.7188C9.61036 11.2873 9.25913 10.9375 8.82585 10.9375H3.9183Z" fill="#184A8F"/>
<path d="M5.76179 18.4375H3.13803C2.27288 18.4375 1.56902 17.7365 1.56902 16.875V3.12499C1.56902 2.26343 2.27288 1.5625 3.13803 1.5625H12.7831C13.6483 1.5625 14.3522 2.26343 14.3522 3.12499V7.92967C14.3522 8.36116 14.7034 8.71092 15.1367 8.71092C15.5699 8.71092 15.9212 8.36116 15.9212 7.92967V3.12499C15.9212 1.40187 14.5134 0 12.7831 0H3.13803C1.40772 0 0 1.40187 0 3.12499V16.875C0 18.5981 1.40772 20 3.13803 20H5.76179C6.19507 20 6.54629 19.6502 6.54629 19.2187C6.54629 18.7872 6.19507 18.4375 5.76179 18.4375Z" fill="#184A8F"/>
<path d="M17.3116 11.3114C16.3939 10.3976 14.9008 10.3976 13.9838 11.3108L9.67671 15.5905C9.58523 15.6814 9.51777 15.7933 9.48019 15.9165L8.54219 18.9917C8.45903 19.2643 8.53148 19.5604 8.7313 19.7643C8.88098 19.9171 9.08433 20 9.29289 20C9.36267 20 9.43312 19.9907 9.50227 19.9716L12.6687 19.0981C12.7991 19.0622 12.9178 18.9933 13.0135 18.8982L17.3116 14.626C18.2292 13.7122 18.2292 12.2253 17.3116 11.3114ZM12.0511 17.6472L10.4581 18.0867L10.9243 16.5582L13.8304 13.6705L14.9401 14.7756L12.0511 17.6472ZM16.2027 13.5207L16.0507 13.6718L14.9412 12.5669L15.0927 12.4164C15.3986 12.1118 15.8963 12.1118 16.2021 12.4164C16.508 12.721 16.508 13.2166 16.2027 13.5207Z" fill="#184A8F"/>
<path d="M11.9987 4.6875H3.9183C3.48501 4.6875 3.13379 5.03726 3.13379 5.46875C3.13379 5.90023 3.48501 6.25 3.9183 6.25H11.9987C12.432 6.25 12.7833 5.90023 12.7833 5.46875C12.7833 5.03726 12.432 4.6875 11.9987 4.6875Z" fill="#184A8F"/>
</svg>
