<svg width="107" height="96" viewBox="0 0 107 96" fill="none" xmlns="http://www.w3.org/2000/svg">
<path d="M99.0193 18.1318H44.4541C49.7599 29.5382 44.7879 43.0753 33.3823 48.3395C27.7419 50.972 21.3076 51.1385 15.5415 48.883V77.878C15.5415 81.7223 18.6334 84.8142 22.4777 84.8142H98.9777C102.821 84.8142 105.913 81.7223 105.913 77.878V25.0681C105.955 21.2654 102.821 18.1318 99.0193 18.1318Z" fill="#55ACD5"/>
<path d="M99.0202 18.1318H44.455C48.2568 26.3631 46.8361 36.0558 40.8196 42.8248L54.0645 55.2333C57.3229 58.8262 63.5484 58.7846 67.3927 55.2333L104.326 20.6387C103.031 19.0515 101.068 18.1318 99.0202 18.1318Z" fill="#ACDEF9"/>
<path d="M67.392 55.2337C64.0495 58.9107 58.3667 59.2029 54.6905 55.8604C54.4816 55.6515 54.2727 55.4426 54.0638 55.2337L51.5154 52.8525L17.1713 82.3494C18.5088 83.9366 20.4721 84.8563 22.5195 84.8563H99.0195C101.109 84.8563 103.072 83.9366 104.368 82.3494L69.982 52.8525L67.392 55.2337Z" fill="#ACDEF9"/>
<path d="M46.5857 27.7001C46.5857 40.2759 36.3911 50.4705 23.8153 50.4705C11.2395 50.4705 1.04492 40.2759 1.04492 27.7001C1.04492 15.1243 11.2395 4.92969 23.8153 4.92969C36.3911 4.92969 46.5857 15.1243 46.5857 27.7001Z" fill="#6FCF97"/>
<path d="M26.3643 18.8427L37.3529 26.781C37.854 27.1572 37.9796 27.8671 37.6035 28.3682C37.5202 28.4522 37.4362 28.5354 37.3529 28.6195L26.3643 36.5578C25.8633 36.9332 25.1109 36.8083 24.7772 36.3065C24.6515 36.0976 24.5683 35.8887 24.5683 35.6381V30.5412H11.8668C10.3204 30.5412 9.02541 29.2878 9.02541 27.6998C9.02541 26.1543 10.2788 24.8592 11.8668 24.8592H24.5258V19.8032C24.5258 19.1764 25.0277 18.6338 25.696 18.6338C25.9049 18.6338 26.1554 18.717 26.3643 18.8427Z" fill="#E9E9EA"/>
<path d="M22.8537 91.6662H22.1021V90.9146C22.1021 90.3295 21.6427 89.8701 21.0576 89.8701C20.4725 89.8701 20.0131 90.3295 20.0131 90.9146V91.6662H19.2607C18.6756 91.6662 18.2162 92.1264 18.2162 92.7107C18.2162 93.2958 18.6756 93.7552 19.2607 93.7552H20.0131V94.5076C20.0131 95.0927 20.4725 95.5521 21.0576 95.5521C21.6427 95.5521 22.1021 95.0927 22.1021 94.5076V93.7552H22.8537C23.4388 93.7552 23.8982 93.2958 23.8982 92.7107C23.8566 92.1264 23.3972 91.6662 22.8537 91.6662Z" fill="#6FCF97"/>
<path d="M57.6988 9.73398C57.6988 9.65074 57.6572 9.60913 57.6572 9.52508C57.6155 9.48346 57.6155 9.40022 57.5739 9.35779C57.5315 9.31617 57.4899 9.23294 57.4483 9.19132C57.0305 8.81513 56.4037 8.81513 55.9859 9.19132C55.9443 9.23294 55.9027 9.27456 55.8603 9.35779C55.777 9.48346 55.7354 9.60913 55.6938 9.73398C55.6514 9.85965 55.6514 10.0269 55.6938 10.1518C55.6938 10.2358 55.7354 10.2775 55.7354 10.3607C55.777 10.4023 55.777 10.4864 55.8187 10.528C55.8603 10.5696 55.9027 10.6536 55.9443 10.6953C56.3621 11.1131 56.9888 11.1131 57.4066 10.6953C57.4483 10.6536 57.4899 10.6112 57.5315 10.528C57.5739 10.4864 57.6155 10.4023 57.6155 10.3607C57.6572 10.3191 57.6572 10.2358 57.6572 10.1518C57.6988 10.0269 57.6988 9.85965 57.6988 9.73398Z" fill="#6DCC6D"/>
<path d="M10.1099 84.6059C10.1099 84.5218 10.0683 84.4802 10.0683 84.397C10.0267 84.3546 10.0267 84.2713 9.98504 84.2297C9.94343 84.1881 9.90099 84.104 9.85938 84.0624C9.44157 83.6862 8.81486 83.6862 8.39706 84.0624C8.35544 84.104 8.31382 84.1457 8.27221 84.2297C8.18816 84.3546 8.14654 84.4802 8.10492 84.6059C8.0633 84.7307 8.0633 84.898 8.10492 85.0237C8.10492 85.1069 8.14654 85.1486 8.14654 85.2326C8.18816 85.2742 8.18816 85.3575 8.22977 85.3991C8.27221 85.4415 8.31382 85.5247 8.35544 85.5664C8.77325 85.9842 9.39995 85.9842 9.81776 85.5664C9.85938 85.5247 9.90099 85.4831 9.94343 85.3991C9.98504 85.3575 10.0267 85.2742 10.0267 85.2326C10.0683 85.1902 10.0683 85.1069 10.0683 85.0237C10.1523 84.898 10.1523 84.7724 10.1099 84.6059Z" fill="#55ACD5"/>
<path d="M49.3426 2.75735C47.9643 2.50683 46.8774 1.41989 46.6269 0.0416174C46.6269 3.11289e-09 46.5853 0 46.5436 0C46.502 0 46.502 0.0416174 46.502 0.0416174C46.2507 1.41989 45.1646 2.50683 43.7863 2.75735C43.7439 2.75735 43.7439 2.79897 43.7439 2.84059C43.7439 2.8822 43.7863 2.8822 43.7863 2.8822C45.1646 3.13354 46.2507 4.21967 46.502 5.59794C46.502 5.64037 46.5436 5.64037 46.5853 5.64037C46.6269 5.64037 46.6269 5.59794 46.6269 5.59794C46.8774 4.21967 47.9643 3.13354 49.3426 2.8822C49.3842 2.8822 49.3842 2.84059 49.3842 2.79897C49.3842 2.75735 49.3842 2.75735 49.3426 2.75735Z" fill="#FFCD29"/>
<path d="M23.8149 51.5146C10.654 51.5146 0 40.8605 0 27.6997C0 14.5388 10.654 3.88477 23.8149 3.88477C36.9758 3.88477 47.6298 14.5388 47.6298 27.6997C47.6298 40.8605 36.9758 51.5146 23.8149 51.5146ZM23.8149 6.01541C11.8242 6.01541 2.08903 15.7506 2.08903 27.7413C2.08903 39.7328 11.8242 49.4672 23.8149 49.4672C35.8056 49.4672 45.5408 39.7328 45.5408 27.7413C45.5408 15.7506 35.8056 6.01541 23.8149 6.01541Z" fill="black"/>
<path d="M99.0201 85.9005H22.5201C18.0915 85.9005 14.5402 82.3075 14.5402 77.9206V48.9247C14.5402 48.3396 14.9996 47.8802 15.5847 47.8802C15.7096 47.8802 15.8352 47.9218 15.9601 47.9634C27.116 52.3088 39.7334 46.7941 44.0787 35.6382C46.2093 30.1235 46.0421 23.9812 43.5352 18.5922C43.2847 18.0487 43.5352 17.4636 44.0371 17.2131C44.1619 17.1299 44.3292 17.1299 44.4965 17.1299H99.0201C103.449 17.1299 107 20.7228 107 25.1098V77.9622C107 82.3491 103.407 85.9005 99.0201 85.9005ZM16.5868 50.387V77.9206C16.5868 81.1789 19.2193 83.8114 22.4785 83.8114H98.9785C102.237 83.8114 104.869 81.1789 104.869 77.9206V25.0682C104.869 21.809 102.237 19.1765 98.9785 19.1765H46.0421C47.0866 21.8922 47.63 24.7752 47.63 27.6999C47.63 40.8607 36.976 51.5148 23.8151 51.5148C21.3915 51.5148 18.9271 51.1386 16.5868 50.387Z" fill="black"/>
<path d="M25.6527 37.853C24.4409 37.853 23.438 36.8501 23.438 35.6383V31.5859H11.8651C9.7345 31.6276 7.97923 29.8731 7.93762 27.7416C7.896 25.611 9.65045 23.8565 11.7811 23.8149H11.8651H23.4796V19.7617C23.4796 18.5499 24.4825 17.5479 25.6943 17.5479C26.1538 17.5479 26.6132 17.6727 26.9894 17.9657L37.978 25.904C38.9809 26.6139 39.1898 27.993 38.479 28.9534C38.3542 29.1623 38.1869 29.3296 37.978 29.4553L26.9894 37.3936C26.5716 37.7274 26.1121 37.853 25.6527 37.853ZM11.8651 25.9456C10.8623 25.9456 10.0683 26.7396 10.0683 27.7C10.0683 28.7029 10.8623 29.4969 11.8235 29.4969H11.8651H24.5242C25.1092 29.4969 25.5687 29.9563 25.5687 30.5414V35.6383C25.5687 35.6799 25.6111 35.764 25.6943 35.764H25.736L36.7246 27.8257C36.7662 27.7841 36.7662 27.7416 36.7662 27.6584C36.7662 27.6584 36.7662 27.6584 36.7246 27.6168L25.736 19.6785C25.6943 19.6369 25.6111 19.6369 25.5687 19.7201V19.7617V24.8594C25.5687 25.4437 25.1092 25.904 24.5242 25.904H11.8651V25.9456Z" fill="#231F20"/>
<path d="M60.4976 58.9525C60.3303 58.9525 60.163 58.9525 59.9957 58.9525C57.4473 58.8684 55.0661 57.8239 53.3108 55.9862L40.1083 43.5769C39.6905 43.2007 39.6489 42.5324 40.0251 42.1146C45.7487 35.6386 47.1278 26.4053 43.4924 18.5502C43.2419 18.0076 43.4924 17.4225 43.9943 17.1719C44.1191 17.0879 44.2864 17.0879 44.4537 17.0879H98.9773C101.358 17.0879 103.615 18.1324 105.119 19.9709C105.453 20.3887 105.412 21.0154 105.035 21.3916L68.1429 55.9862C66.0539 57.908 63.3382 58.9525 60.4976 58.9525ZM42.2806 42.7413L54.8148 54.4815L54.8572 54.5239C56.2355 55.9862 58.1156 56.8218 60.0798 56.8634C62.5025 56.9883 64.8845 56.1111 66.6806 54.4815L102.862 20.6392C101.776 19.7204 100.398 19.1769 98.9773 19.1769H46.0409C49.0912 27.1577 47.6705 36.1405 42.2806 42.7413Z" fill="black"/>
<path d="M99.0203 85.9003H22.5204C20.1384 85.9003 17.8829 84.8558 16.3781 83.0173C16.0028 82.5578 16.086 81.9311 16.5038 81.555L50.8895 52.0581C51.3073 51.7235 51.8916 51.7235 52.2678 52.0997L54.8162 54.4809C54.8586 54.4809 54.8586 54.5233 54.8586 54.5233C57.7833 57.7817 62.8386 58.0322 66.0553 55.0659C66.2226 54.8987 66.4315 54.7322 66.5988 54.5233C66.6404 54.4809 66.6404 54.4809 66.682 54.4392L69.2305 52.0581C69.6067 51.6819 70.2334 51.6819 70.6096 52.0165L104.995 81.5133C105.413 81.8895 105.496 82.5162 105.12 82.9757C103.658 84.8558 101.401 85.9003 99.0203 85.9003ZM18.6761 82.4322C19.763 83.3518 21.0997 83.8529 22.5204 83.8529H99.0203C100.441 83.8529 101.778 83.3518 102.864 82.4322L70.0245 54.272L68.186 55.9856C64.4682 60.0796 58.117 60.3726 54.023 56.6123C53.8141 56.4034 53.6052 56.1945 53.3963 55.9856L51.5578 54.272L18.6761 82.4322Z" fill="black"/>
</svg>
