<svg width="127" height="42" viewBox="0 0 127 42" fill="none" xmlns="http://www.w3.org/2000/svg">
<path d="M9.37902 40.9836C4.23185 40.9836 1 37.9322 1 32.6046V9.38669C1 4.05913 4.23185 1.00768 9.37902 1.00768C14.5262 1.00768 17.758 4.07832 17.758 9.38669V32.6046C17.758 37.9322 14.5262 40.9836 9.37902 40.9836ZM12.6109 9.68608C12.6109 6.93402 11.2943 5.67505 9.37902 5.67505C7.4637 5.67505 6.14717 6.93402 6.14717 9.68608V32.2899C6.14717 35.0458 7.4637 36.3009 9.37902 36.3009C11.2943 36.3009 12.6109 35.0611 12.6109 32.2899V9.68608ZM29.4265 40.9836C24.3983 40.9836 21.0475 38.0511 21.0475 32.6046V30.72C21.047 30.386 21.1123 30.0552 21.2398 29.7464C21.3672 29.4377 21.5543 29.1571 21.7903 28.9208C22.0263 28.6844 22.3066 28.4969 22.6151 28.369C22.9237 28.241 23.2544 28.1752 23.5884 28.1752V28.1752C23.9233 28.1742 24.255 28.2393 24.5646 28.3667C24.8743 28.4941 25.1557 28.6814 25.3928 28.9178C25.6299 29.1542 25.8181 29.4351 25.9464 29.7444C26.0748 30.0536 26.1409 30.3852 26.1409 30.72V32.2899C26.1409 35.0458 27.6378 36.3009 29.4342 36.3009C31.8254 36.3009 33.023 34.7656 33.023 31.8139C33.023 29.3574 32.5432 27.7415 30.6279 25.7072L24.8167 19.4392C22.0646 16.5067 21.2854 13.9927 21.2854 10.162C21.2854 4.89588 23.7995 1.00768 29.5954 1.00768C34.8615 1.00768 37.8554 4.07832 37.8554 9.38669V11.2713C37.8554 11.9462 37.5873 12.5935 37.11 13.0707C36.6328 13.548 35.9855 13.8161 35.3106 13.8161C34.9766 13.8161 34.6459 13.7502 34.3373 13.6223C34.0288 13.4944 33.7485 13.3069 33.5125 13.0705C33.2765 12.8342 33.0894 12.5536 32.962 12.2449C32.8345 11.9361 32.7691 11.6053 32.7696 11.2713V9.68608C32.7696 6.93402 31.5107 5.67505 29.5954 5.67505C27.4421 5.67505 26.3635 7.47138 26.3635 10.162C26.3635 12.6185 26.8433 14.2345 28.7586 16.2688L34.5852 22.5521C37.3411 25.4845 38.1164 27.9986 38.1164 31.8293C38.101 37.0954 35.23 40.9836 29.4265 40.9836ZM49.6505 40.9836C44.5033 40.9836 41.5133 37.913 41.5133 32.6046V9.38669C41.5133 4.05913 44.5033 1.00768 49.6505 1.00768C54.7977 1.00768 57.7301 4.07832 57.7301 9.38669V11.2406C57.7301 11.923 57.4593 12.5775 56.9771 13.0604C56.495 13.5433 55.8409 13.8151 55.1585 13.8161C54.4754 13.8161 53.8203 13.5448 53.3373 13.0617C52.8543 12.5787 52.583 11.9237 52.583 11.2406V9.68608C52.583 6.93402 51.5658 5.67505 49.6505 5.67505C47.7352 5.67505 46.6605 6.93402 46.6605 9.68608V32.2899C46.6605 35.0458 47.7352 36.3009 49.6505 36.3009C51.5658 36.3009 52.583 35.0458 52.583 32.2899V30.7545C52.583 30.0715 52.8543 29.4164 53.3373 28.9334C53.8203 28.4504 54.4754 28.179 55.1585 28.179V28.179C55.8409 28.18 56.495 28.4518 56.9771 28.9347C57.4593 29.4176 57.7301 30.0721 57.7301 30.7545V32.6084C57.7301 37.9322 54.7977 40.9836 49.6505 40.9836ZM61.9331 37.913V4.05913C61.9331 3.72109 61.9997 3.38637 62.1292 3.07411C62.2587 2.76185 62.4484 2.47818 62.6877 2.23933C62.9269 2.00048 63.2108 1.81113 63.5233 1.68212C63.8357 1.55311 64.1705 1.48696 64.5086 1.48746V1.48746C65.1906 1.48746 65.8447 1.75841 66.327 2.24069C66.8093 2.72297 67.0802 3.37708 67.0802 4.05913V37.9322C67.0802 38.6142 66.8093 39.2683 66.327 39.7506C65.8447 40.2329 65.1906 40.5038 64.5086 40.5038V40.5038C64.1693 40.5064 63.8328 40.4417 63.5185 40.3136C63.2043 40.1855 62.9186 39.9965 62.6777 39.7574C62.4369 39.5184 62.2457 39.234 62.1153 38.9207C61.9849 38.6075 61.9177 38.2715 61.9177 37.9322L61.9331 37.913ZM70.7113 38.1816V3.79045C70.7113 3.17966 70.9539 2.59389 71.3858 2.16199C71.8177 1.7301 72.4035 1.48746 73.0143 1.48746H73.5516C74.1624 1.48746 74.7482 1.7301 75.1801 2.16199C75.612 2.59389 75.8546 3.17966 75.8546 3.79045L75.9045 35.8096L81.209 35.8979C81.8198 35.8979 82.4056 36.1405 82.8375 36.5724C83.2694 37.0043 83.512 37.5901 83.512 38.2008V38.2008C83.512 38.8116 83.2694 39.3974 82.8375 39.8293C82.4056 40.2612 81.8198 40.5038 81.209 40.5038H72.9989C72.3881 40.5038 71.8023 40.2612 71.3705 39.8293C70.9386 39.3974 70.6959 38.8116 70.6959 38.2008L70.7113 38.1816ZM86.0645 38.1816V3.79045C86.0645 3.17966 86.3071 2.59389 86.739 2.16199C87.1709 1.7301 87.7567 1.48746 88.3675 1.48746H88.9048C89.5156 1.48746 90.1014 1.7301 90.5333 2.16199C90.9652 2.59389 91.2078 3.17966 91.2078 3.79045L91.2577 35.8096L96.5623 35.8979C97.173 35.8979 97.7588 36.1405 98.1907 36.5724C98.6226 37.0043 98.8652 37.5901 98.8652 38.2008C98.8652 38.8116 98.6226 39.3974 98.1907 39.8293C97.7588 40.2612 97.173 40.5038 96.5623 40.5038H88.3483C87.7375 40.5038 87.1517 40.2612 86.7198 39.8293C86.2879 39.3974 86.0453 38.8116 86.0453 38.2008L86.0645 38.1816ZM110.092 40.9644C104.826 40.9644 101.414 37.9744 101.414 32.5202V26.7397C101.414 23.7496 102.73 21.1741 104.868 20.276C103.877 19.6529 103.061 18.7881 102.495 17.7629C101.93 16.7377 101.634 15.5856 101.636 14.4149V9.44427C101.636 4.12054 104.93 1 110.081 1C115.232 1 118.525 4.11286 118.525 9.44427V14.4341C118.527 15.6048 118.232 16.7569 117.666 17.7821C117.101 18.8073 116.284 19.6721 115.293 20.2952C117.446 21.1933 118.748 23.7496 118.748 26.7589V32.547C118.748 38.0473 115.397 40.9836 110.073 40.9836L110.092 40.9644ZM113.624 26.4825C113.624 23.7304 112.008 22.4715 110.092 22.4715C108.177 22.4715 106.561 23.7304 106.561 26.4825V32.2899C106.561 35.0458 108.177 36.3009 110.092 36.3009C112.008 36.3009 113.624 35.0458 113.624 32.2899V26.4825ZM113.382 9.66689C113.382 6.91483 112.008 5.65586 110.092 5.65586C108.177 5.65586 106.799 6.91483 106.799 9.66689V14.6528C106.799 17.4049 108.177 18.66 110.092 18.66C112.008 18.66 113.382 17.4049 113.382 14.6528V9.66689Z" stroke="url(#paint0_linear)"/>
<path d="M9.37902 40.9836C4.23185 40.9836 1 37.9322 1 32.6046V9.38669C1 4.05913 4.23185 1.00768 9.37902 1.00768C14.5262 1.00768 17.758 4.07832 17.758 9.38669V32.6046C17.758 37.9322 14.5262 40.9836 9.37902 40.9836ZM12.6109 9.68608C12.6109 6.93402 11.2943 5.67505 9.37902 5.67505C7.4637 5.67505 6.14717 6.93402 6.14717 9.68608V32.2899C6.14717 35.0458 7.4637 36.3009 9.37902 36.3009C11.2943 36.3009 12.6109 35.0611 12.6109 32.2899V9.68608ZM29.4265 40.9836C24.3983 40.9836 21.0475 38.0511 21.0475 32.6046V30.72C21.047 30.386 21.1123 30.0552 21.2398 29.7464C21.3672 29.4377 21.5543 29.1571 21.7903 28.9208C22.0263 28.6844 22.3066 28.4969 22.6151 28.369C22.9237 28.241 23.2544 28.1752 23.5884 28.1752C23.9233 28.1742 24.255 28.2393 24.5646 28.3667C24.8743 28.4941 25.1557 28.6814 25.3928 28.9178C25.6299 29.1542 25.8181 29.4351 25.9464 29.7444C26.0748 30.0536 26.1409 30.3852 26.1409 30.72V32.2899C26.1409 35.0458 27.6378 36.3009 29.4342 36.3009C31.8254 36.3009 33.023 34.7656 33.023 31.8139C33.023 29.3574 32.5432 27.7415 30.6279 25.7072L24.8167 19.4392C22.0646 16.5067 21.2854 13.9927 21.2854 10.162C21.2854 4.89588 23.7995 1.00768 29.5954 1.00768C34.8615 1.00768 37.8554 4.07832 37.8554 9.38669V11.2713C37.8554 11.9462 37.5873 12.5935 37.11 13.0707C36.6328 13.548 35.9855 13.8161 35.3106 13.8161C34.9766 13.8161 34.6459 13.7502 34.3373 13.6223C34.0288 13.4944 33.7485 13.3069 33.5125 13.0705C33.2765 12.8342 33.0894 12.5536 32.962 12.2449C32.8345 11.9361 32.7691 11.6053 32.7696 11.2713V9.68608C32.7696 6.93402 31.5107 5.67505 29.5954 5.67505C27.4421 5.67505 26.3635 7.47138 26.3635 10.162C26.3635 12.6185 26.8433 14.2345 28.7586 16.2688L34.5852 22.5521C37.3411 25.4845 38.1164 27.9986 38.1164 31.8293C38.101 37.0954 35.23 40.9836 29.4265 40.9836ZM49.6505 40.9836C44.5033 40.9836 41.5133 37.913 41.5133 32.6046V9.38669C41.5133 4.05913 44.5033 1.00768 49.6505 1.00768C54.7977 1.00768 57.7301 4.07832 57.7301 9.38669V11.2406C57.7301 11.923 57.4593 12.5775 56.9771 13.0604C56.495 13.5433 55.8409 13.8151 55.1585 13.8161C54.4754 13.8161 53.8203 13.5448 53.3373 13.0617C52.8543 12.5787 52.583 11.9237 52.583 11.2406V9.68608C52.583 6.93402 51.5658 5.67505 49.6505 5.67505C47.7352 5.67505 46.6605 6.93402 46.6605 9.68608V32.2899C46.6605 35.0458 47.7352 36.3009 49.6505 36.3009C51.5658 36.3009 52.583 35.0458 52.583 32.2899V30.7545C52.583 30.0715 52.8543 29.4164 53.3373 28.9334C53.8203 28.4504 54.4754 28.179 55.1585 28.179C55.8409 28.18 56.495 28.4518 56.9771 28.9347C57.4593 29.4176 57.7301 30.0721 57.7301 30.7545V32.6084C57.7301 37.9322 54.7977 40.9836 49.6505 40.9836ZM61.9331 37.913V4.05913C61.9331 3.72109 61.9997 3.38637 62.1292 3.07411C62.2587 2.76185 62.4484 2.47818 62.6877 2.23933C62.9269 2.00048 63.2108 1.81113 63.5233 1.68212C63.8357 1.55311 64.1705 1.48696 64.5086 1.48746C65.1906 1.48746 65.8447 1.75841 66.327 2.24069C66.8093 2.72297 67.0802 3.37708 67.0802 4.05913V37.9322C67.0802 38.6142 66.8093 39.2683 66.327 39.7506C65.8447 40.2329 65.1906 40.5038 64.5086 40.5038C64.1693 40.5064 63.8328 40.4417 63.5186 40.3136C63.2043 40.1855 62.9186 39.9965 62.6777 39.7574C62.4369 39.5184 62.2457 39.234 62.1153 38.9207C61.9849 38.6075 61.9177 38.2715 61.9177 37.9322L61.9331 37.913ZM70.7113 38.1816V3.79045C70.7113 3.17966 70.9539 2.59389 71.3858 2.16199C71.8177 1.7301 72.4035 1.48746 73.0143 1.48746H73.5516C74.1624 1.48746 74.7482 1.7301 75.1801 2.16199C75.612 2.59389 75.8546 3.17966 75.8546 3.79045L75.9045 35.8096L81.209 35.8979C81.8198 35.8979 82.4056 36.1405 82.8375 36.5724C83.2694 37.0043 83.512 37.5901 83.512 38.2008C83.512 38.8116 83.2694 39.3974 82.8375 39.8293C82.4056 40.2612 81.8198 40.5038 81.209 40.5038H72.9989C72.3881 40.5038 71.8023 40.2612 71.3705 39.8293C70.9386 39.3974 70.6959 38.8116 70.6959 38.2008L70.7113 38.1816ZM86.0645 38.1816V3.79045C86.0645 3.17966 86.3071 2.59389 86.739 2.16199C87.1709 1.7301 87.7567 1.48746 88.3675 1.48746H88.9048C89.5156 1.48746 90.1014 1.7301 90.5333 2.16199C90.9652 2.59389 91.2078 3.17966 91.2078 3.79045L91.2577 35.8096L96.5623 35.8979C97.173 35.8979 97.7588 36.1405 98.1907 36.5724C98.6226 37.0043 98.8652 37.5901 98.8652 38.2008C98.8652 38.8116 98.6226 39.3974 98.1907 39.8293C97.7588 40.2612 97.173 40.5038 96.5623 40.5038H88.3483C87.7375 40.5038 87.1517 40.2612 86.7198 39.8293C86.2879 39.3974 86.0453 38.8116 86.0453 38.2008L86.0645 38.1816ZM110.092 40.9644C104.826 40.9644 101.414 37.9744 101.414 32.5202V26.7397C101.414 23.7496 102.73 21.1741 104.868 20.276C103.877 19.6529 103.061 18.7881 102.495 17.7629C101.93 16.7377 101.634 15.5856 101.636 14.4149V9.44427C101.636 4.12054 104.93 1 110.081 1C115.232 1 118.525 4.11286 118.525 9.44427V14.4341C118.527 15.6048 118.232 16.7569 117.666 17.7821C117.101 18.8073 116.284 19.6721 115.293 20.2952C117.446 21.1933 118.748 23.7496 118.748 26.7589V32.547C118.748 38.0473 115.397 40.9836 110.073 40.9836L110.092 40.9644ZM113.624 26.4825C113.624 23.7304 112.008 22.4715 110.092 22.4715C108.177 22.4715 106.561 23.7304 106.561 26.4825V32.2899C106.561 35.0458 108.177 36.3009 110.092 36.3009C112.008 36.3009 113.624 35.0458 113.624 32.2899V26.4825ZM113.382 9.66689C113.382 6.91483 112.008 5.65586 110.092 5.65586C108.177 5.65586 106.799 6.91483 106.799 9.66689V14.6528C106.799 17.4049 108.177 18.66 110.092 18.66C112.008 18.66 113.382 17.4049 113.382 14.6528V9.66689Z" fill="white"/>
<path d="M120.855 1.54475V5.10669H120.268V1.54475H119.028V1.00739H122.141V1.54475H120.855ZM126.463 5.10669V1.85565L125.07 4.6768H124.686L123.293 1.85565V5.10669H122.755V1.00739H123.458L124.886 3.88611L126.29 1.00739H127V5.10669H126.463Z" fill="white"/>
<defs>
<linearGradient id="paint0_linear" x1="59.8757" y1="40.9836" x2="59.8757" y2="1.00768" gradientUnits="userSpaceOnUse">
<stop stop-color="#D1D3D4"/>
<stop offset="1" stop-color="white"/>
</linearGradient>
</defs>
</svg>
