<svg width="126" height="40" viewBox="0 0 126 40" fill="none" xmlns="http://www.w3.org/2000/svg">
<path d="M8.37902 39.9836C3.23185 39.9836 0 36.9322 0 31.6046V8.38669C0 3.05913 3.23185 0.00767661 8.37902 0.00767661C13.5262 0.00767661 16.758 3.07832 16.758 8.38669V31.6046C16.758 36.9322 13.5262 39.9836 8.37902 39.9836ZM11.6109 8.68608C11.6109 5.93402 10.2943 4.67505 8.37902 4.67505C6.4637 4.67505 5.14717 5.93402 5.14717 8.68608V31.2899C5.14717 34.0458 6.4637 35.3009 8.37902 35.3009C10.2943 35.3009 11.6109 34.0611 11.6109 31.2899V8.68608ZM28.4265 39.9836C23.3983 39.9836 20.0475 37.0511 20.0475 31.6046V29.72C20.047 29.386 20.1123 29.0552 20.2398 28.7464C20.3672 28.4377 20.5543 28.1571 20.7903 27.9208C21.0263 27.6844 21.3066 27.4969 21.6151 27.369C21.9237 27.241 22.2544 27.1752 22.5884 27.1752C22.9233 27.1742 23.255 27.2393 23.5646 27.3667C23.8743 27.4941 24.1557 27.6814 24.3928 27.9178C24.6299 28.1542 24.8181 28.4351 24.9464 28.7444C25.0748 29.0536 25.1409 29.3852 25.1409 29.72V31.2899C25.1409 34.0458 26.6378 35.3009 28.4342 35.3009C30.8254 35.3009 32.023 33.7656 32.023 30.8139C32.023 28.3574 31.5432 26.7415 29.6279 24.7072L23.8167 18.4392C21.0646 15.5067 20.2854 12.9927 20.2854 9.16203C20.2854 3.89588 22.7995 0.00767661 28.5954 0.00767661C33.8615 0.00767661 36.8554 3.07832 36.8554 8.38669V10.2713C36.8554 10.9462 36.5873 11.5935 36.11 12.0707C35.6328 12.548 34.9855 12.8161 34.3106 12.8161C33.9766 12.8161 33.6459 12.7502 33.3373 12.6223C33.0288 12.4944 32.7485 12.3069 32.5125 12.0705C32.2765 11.8342 32.0894 11.5536 31.962 11.2449C31.8345 10.9361 31.7691 10.6053 31.7696 10.2713V8.68608C31.7696 5.93402 30.5107 4.67505 28.5954 4.67505C26.4421 4.67505 25.3635 6.47138 25.3635 9.16203C25.3635 11.6185 25.8433 13.2345 27.7586 15.2688L33.5852 21.5521C36.3411 24.4845 37.1164 26.9986 37.1164 30.8293C37.101 36.0954 34.23 39.9836 28.4265 39.9836ZM48.6505 39.9836C43.5033 39.9836 40.5133 36.913 40.5133 31.6046V8.38669C40.5133 3.05913 43.5033 0.00767661 48.6505 0.00767661C53.7977 0.00767661 56.7301 3.07832 56.7301 8.38669V10.2406C56.7301 10.923 56.4593 11.5775 55.9771 12.0604C55.495 12.5433 54.8409 12.8151 54.1585 12.8161C53.4754 12.8161 52.8203 12.5448 52.3373 12.0617C51.8543 11.5787 51.583 10.9237 51.583 10.2406V8.68608C51.583 5.93402 50.5658 4.67505 48.6505 4.67505C46.7352 4.67505 45.6605 5.93402 45.6605 8.68608V31.2899C45.6605 34.0458 46.7352 35.3009 48.6505 35.3009C50.5658 35.3009 51.583 34.0458 51.583 31.2899V29.7545C51.583 29.0715 51.8543 28.4164 52.3373 27.9334C52.8203 27.4504 53.4754 27.179 54.1585 27.179C54.8409 27.18 55.495 27.4518 55.9771 27.9347C56.4593 28.4176 56.7301 29.0721 56.7301 29.7545V31.6084C56.7301 36.9322 53.7977 39.9836 48.6505 39.9836ZM60.9331 36.913V3.05913C60.9331 2.72109 60.9997 2.38637 61.1292 2.07411C61.2587 1.76185 61.4484 1.47818 61.6877 1.23933C61.9269 1.00048 62.2108 0.81113 62.5233 0.682118C62.8357 0.553106 63.1705 0.48696 63.5086 0.487465C64.1906 0.487465 64.8447 0.758407 65.327 1.24069C65.8093 1.72297 66.0802 2.37708 66.0802 3.05913V36.9322C66.0802 37.6142 65.8093 38.2683 65.327 38.7506C64.8447 39.2329 64.1906 39.5038 63.5086 39.5038C63.1693 39.5064 62.8328 39.4417 62.5186 39.3136C62.2043 39.1855 61.9186 38.9965 61.6777 38.7574C61.4369 38.5184 61.2457 38.234 61.1153 37.9207C60.9849 37.6075 60.9177 37.2715 60.9177 36.9322L60.9331 36.913ZM69.7113 37.1816V2.79045C69.7113 2.17966 69.9539 1.59389 70.3858 1.16199C70.8177 0.730099 71.4035 0.487465 72.0143 0.487465H72.5516C73.1624 0.487465 73.7482 0.730099 74.1801 1.16199C74.612 1.59389 74.8546 2.17966 74.8546 2.79045L74.9045 34.8096L80.209 34.8979C80.8198 34.8979 81.4056 35.1405 81.8375 35.5724C82.2694 36.0043 82.512 36.5901 82.512 37.2008C82.512 37.8116 82.2694 38.3974 81.8375 38.8293C81.4056 39.2612 80.8198 39.5038 80.209 39.5038H71.9989C71.3881 39.5038 70.8023 39.2612 70.3705 38.8293C69.9386 38.3974 69.6959 37.8116 69.6959 37.2008L69.7113 37.1816ZM85.0645 37.1816V2.79045C85.0645 2.17966 85.3071 1.59389 85.739 1.16199C86.1709 0.730099 86.7567 0.487465 87.3675 0.487465H87.9048C88.5156 0.487465 89.1014 0.730099 89.5333 1.16199C89.9652 1.59389 90.2078 2.17966 90.2078 2.79045L90.2577 34.8096L95.5623 34.8979C96.173 34.8979 96.7588 35.1405 97.1907 35.5724C97.6226 36.0043 97.8652 36.5901 97.8652 37.2008C97.8652 37.8116 97.6226 38.3974 97.1907 38.8293C96.7588 39.2612 96.173 39.5038 95.5623 39.5038H87.3483C86.7375 39.5038 86.1517 39.2612 85.7198 38.8293C85.2879 38.3974 85.0453 37.8116 85.0453 37.2008L85.0645 37.1816ZM109.092 39.9644C103.826 39.9644 100.414 36.9744 100.414 31.5202V25.7397C100.414 22.7496 101.73 20.1741 103.868 19.276C102.877 18.6529 102.061 17.7881 101.495 16.7629C100.93 15.7377 100.634 14.5856 100.636 13.4149V8.44427C100.636 3.12054 103.93 0 109.081 0C114.232 0 117.525 3.11286 117.525 8.44427V13.4341C117.527 14.6048 117.232 15.7569 116.666 16.7821C116.101 17.8073 115.284 18.6721 114.293 19.2952C116.446 20.1933 117.748 22.7496 117.748 25.7589V31.547C117.748 37.0473 114.397 39.9836 109.073 39.9836L109.092 39.9644ZM112.624 25.4825C112.624 22.7304 111.008 21.4715 109.092 21.4715C107.177 21.4715 105.561 22.7304 105.561 25.4825V31.2899C105.561 34.0458 107.177 35.3009 109.092 35.3009C111.008 35.3009 112.624 34.0458 112.624 31.2899V25.4825ZM112.382 8.66689C112.382 5.91483 111.008 4.65586 109.092 4.65586C107.177 4.65586 105.799 5.91483 105.799 8.66689V13.6528C105.799 16.4049 107.177 17.66 109.092 17.66C111.008 17.66 112.382 16.4049 112.382 13.6528V8.66689Z" fill="#3C4448"/>
<path d="M119.855 0.544748V4.10669H119.268V0.544748H118.028V0.00738525H121.141V0.544748H119.855ZM125.463 4.10669V0.855651L124.07 3.6768H123.686L122.293 0.855651V4.10669H121.755V0.00738525H122.458L123.886 2.88611L125.29 0.00738525H126V4.10669H125.463Z" fill="#3C4448"/>
</svg>
