<svg width="24" height="19" viewBox="0 0 24 19" fill="none" xmlns="http://www.w3.org/2000/svg">
<path d="M23.0625 7.83862H0.9375C0.419719 7.83862 0 8.59731 0 9.53326C0 10.4692 0.419719 11.2279 0.9375 11.2279H23.0625C23.5803 11.2279 24 10.4692 24 9.53326C24 8.59731 23.5803 7.83862 23.0625 7.83862Z" fill="white"/>
<path d="M23.0625 0H0.9375C0.419719 0 0 0.758685 0 1.69463C0 2.63057 0.419719 3.38926 0.9375 3.38926H23.0625C23.5803 3.38926 24 2.63057 24 1.69463C24 0.758685 23.5803 0 23.0625 0Z" fill="white"/>
<path d="M23.0625 15.6107H0.9375C0.419719 15.6107 0 16.3694 0 17.3053C0 18.2413 0.419719 19 0.9375 19H23.0625C23.5803 19 24 18.2413 24 17.3053C24 16.3694 23.5803 15.6107 23.0625 15.6107Z" fill="white"/>
</svg>
