<svg width="18" height="20" viewBox="0 0 18 20" fill="none" xmlns="http://www.w3.org/2000/svg">
<path d="M17.9442 4.47037L17.4576 3.14667C17.2723 2.64252 16.7542 2.30377 16.1687 2.30377H12.079V1.09543C12.079 0.491486 11.5379 0 10.8726 0H7.1274C6.46223 0 5.92098 0.491486 5.92098 1.09543V2.30377H1.83143C1.24579 2.30377 0.727743 2.64252 0.54245 3.14667L0.0558469 4.47037C-0.0549588 4.77173 0.00120068 5.10544 0.20583 5.36316C0.410459 5.62088 0.74153 5.77484 1.0916 5.77484H1.60023L2.71972 18.3376C2.80295 19.2697 3.6746 20 4.70447 20H13.5227C14.5524 20 15.4242 19.2697 15.5073 18.3374L16.6268 5.77484H16.9084C17.2585 5.77484 17.5895 5.62088 17.7942 5.36331C17.9988 5.10559 18.055 4.77173 17.9442 4.47037ZM7.21231 1.17188H10.7877V2.30377H7.21231V1.17188ZM14.2201 18.243C14.1909 18.5712 13.8845 18.8281 13.5227 18.8281H4.70447C4.34263 18.8281 4.03628 18.5712 4.00702 18.243L2.89577 5.77484H15.3312L14.2201 18.243ZM1.36853 4.60297L1.76753 3.51746C1.77661 3.49243 1.80234 3.47565 1.83143 3.47565H16.1687C16.1978 3.47565 16.2234 3.49243 16.2326 3.51746L16.6316 4.60297H1.36853Z" fill="#184A8F"/>
<path d="M12.1599 18.2014C12.1714 18.202 12.1826 18.2022 12.1941 18.2022C12.5352 18.2022 12.8204 17.9596 12.8382 17.6467L13.4445 7.08431C13.463 6.76113 13.1893 6.4854 12.8333 6.46862C12.4764 6.45138 12.1736 6.70009 12.1549 7.02328L11.5487 17.5857C11.5302 17.9089 11.8038 18.1846 12.1599 18.2014Z" fill="#184A8F"/>
<path d="M5.18861 17.648C5.20744 17.9604 5.49227 18.2021 5.83276 18.2021C5.84453 18.2021 5.85664 18.2018 5.86857 18.2011C6.22453 18.1836 6.49742 17.9074 6.47809 17.5842L5.84302 7.0218C5.82368 6.69862 5.51934 6.45097 5.16322 6.46867C4.80726 6.48621 4.53437 6.7624 4.5537 7.08558L5.18861 17.648Z" fill="#184A8F"/>
<path d="M9.00699 18.2021C9.36362 18.2021 9.65266 17.9398 9.65266 17.6162V7.05371C9.65266 6.73007 9.36362 6.46777 9.00699 6.46777C8.65036 6.46777 8.36133 6.73007 8.36133 7.05371V17.6162C8.36133 17.9398 8.65036 18.2021 9.00699 18.2021Z" fill="#184A8F"/>
</svg>
