<svg width="27" height="28" viewBox="0 0 27 28" fill="none" xmlns="http://www.w3.org/2000/svg">
    <path opacity="0.7" d="M6.66885 2.72122H25.3288C25.5596 2.72181 25.7865 2.78026 25.9888 2.89122C26.1892 3.00844 26.3575 3.17332 26.4788 3.37122C26.5972 3.56786 26.6627 3.79179 26.6688 4.02122C26.6837 4.25632 26.6354 4.4911 26.5288 4.70122L21.1988 15.5912C21.0908 15.8203 20.9166 16.0119 20.6988 16.1412C20.4889 16.2722 20.2463 16.3415 19.9988 16.3412H6.66885C6.48363 16.3467 6.29927 16.3141 6.12723 16.2453C5.95519 16.1764 5.79915 16.0729 5.66885 15.9412C5.54034 15.809 5.43962 15.6524 5.37264 15.4807C5.30565 15.3089 5.27376 15.1255 5.27885 14.9412V4.08122C5.27376 3.89693 5.30565 3.7135 5.37264 3.54175C5.43962 3.36999 5.54034 3.2134 5.66885 3.08122C5.79915 2.94949 5.95519 2.84599 6.12723 2.77717C6.29927 2.70836 6.48363 2.6757 6.66885 2.68122V2.72122Z" fill="white"/>
    <path d="M20.9986 23.1512C21.2372 23.5646 21.3614 24.034 21.3586 24.5112C21.3572 24.9879 21.2333 25.4562 20.9986 25.8712C20.7605 26.2878 20.4152 26.633 19.9986 26.8712C19.5961 27.1096 19.1364 27.234 18.6686 27.2312C18.1966 27.2346 17.7325 27.1099 17.3257 26.8704C16.9189 26.6309 16.5847 26.2856 16.3586 25.8712C16.1228 25.4568 15.9988 24.9881 15.9988 24.5112C15.9988 24.0344 16.1228 23.5657 16.3586 23.1512H8.99864C9.23753 23.5681 9.36174 24.0408 9.35864 24.5212C9.35715 25.0011 9.23324 25.4726 8.99864 25.8912C8.76538 26.3115 8.41893 26.658 7.99864 26.8912C7.59054 27.1316 7.12193 27.2497 6.64864 27.2312C6.17229 27.2211 5.70764 27.0818 5.30431 26.8282C4.90097 26.5746 4.57411 26.2162 4.35864 25.7912C4.11639 25.3648 3.99213 24.8816 3.99864 24.3912C4.00454 23.8989 4.14644 23.4179 4.40864 23.0012C3.56306 22.7939 2.8082 22.3164 2.25864 21.6412C1.70994 20.9632 1.38938 20.1293 1.34269 19.2584C1.296 18.3874 1.52556 17.524 1.99864 16.7912C2.47518 16.0606 3.17752 15.5057 3.99864 15.2112V2.72122H1.32864C1.15306 2.72148 0.979256 2.68617 0.8177 2.61742C0.656144 2.54867 0.510189 2.44791 0.388637 2.32122C0.139371 2.06381 0 1.71954 0 1.36122C0 1.0029 0.139371 0.658628 0.388637 0.401219C0.510189 0.274523 0.656144 0.173763 0.8177 0.105016C0.979256 0.036269 1.15306 0.000959815 1.32864 0.00121852H5.32864C5.51415 -0.00678821 5.69924 0.0247342 5.87165 0.0936956C6.04405 0.162657 6.19982 0.267482 6.32864 0.401219C6.45808 0.532725 6.55942 0.689199 6.62646 0.861116C6.69351 1.03303 6.72487 1.2168 6.71864 1.40122V15.0012H21.3286C21.5141 14.9932 21.6992 15.0247 21.8716 15.0937C22.0441 15.1627 22.1998 15.2675 22.3286 15.4012C22.5779 15.6586 22.7173 16.0029 22.7173 16.3612C22.7173 16.7195 22.5779 17.0638 22.3286 17.3212C22.1998 17.455 22.0441 17.5598 21.8716 17.6287C21.6992 17.6977 21.5141 17.7292 21.3286 17.7212H5.32864C5.15306 17.721 4.97926 17.7563 4.8177 17.825C4.65614 17.8938 4.51019 17.9945 4.38864 18.1212C4.13937 18.3786 4 18.7229 4 19.0812C4 19.4395 4.13937 19.7838 4.38864 20.0412C4.51019 20.1679 4.65614 20.2687 4.8177 20.3374C4.97926 20.4062 5.15306 20.4415 5.32864 20.4412H21.3286C21.5138 20.4357 21.6982 20.4684 21.8703 20.5372C22.0423 20.606 22.1983 20.7095 22.3286 20.8412C22.5785 21.1003 22.7182 21.4462 22.7182 21.8062C22.7182 22.1662 22.5785 22.5121 22.3286 22.7712C22.1983 22.903 22.0423 23.0064 21.8703 23.0753C21.6982 23.1441 21.5138 23.1767 21.3286 23.1712L20.9986 23.1512Z" fill="white"/>
</svg>