<svg width="17" height="18" viewBox="0 0 17 17" fill="none" xmlns="http://www.w3.org/2000/svg">
    <path d="M8.50478 1.53192C10.7772 1.53192 11.0461 1.54202 11.9397 1.58189C12.7705 1.61857 13.2186 1.75783 13.5178 1.87424C13.9133 2.02733 14.1987 2.21337 14.4943 2.50891C14.7935 2.80817 14.9759 3.09043 15.1321 3.4859C15.2485 3.78516 15.3878 4.23645 15.4245 5.06407C15.4644 5.96132 15.4745 6.23029 15.4745 8.49947C15.4745 10.7687 15.4644 11.0408 15.4245 11.9349C15.3878 12.7657 15.2485 13.2138 15.1321 13.513C14.9791 13.9085 14.7935 14.194 14.4975 14.4895C14.1982 14.7888 13.916 14.9711 13.521 15.1274C13.2217 15.2438 12.7699 15.383 11.9428 15.4197C11.0456 15.4596 10.7766 15.4697 8.50744 15.4697C6.23826 15.4697 5.96611 15.4596 5.07204 15.4197C4.24123 15.383 3.79313 15.2438 3.49387 15.1274C3.0984 14.9743 2.81296 14.7888 2.51688 14.4927C2.21762 14.1934 2.0353 13.9112 1.87903 13.5162C1.76262 13.217 1.62335 12.7651 1.58667 11.9381C1.54681 11.0408 1.53671 10.7718 1.53671 8.50266C1.53671 6.23348 1.54681 5.96132 1.58667 5.06726C1.62335 4.23645 1.76262 3.78835 1.87903 3.48909C2.03211 3.09362 2.21815 2.80817 2.5137 2.5121C2.81296 2.21284 3.09521 2.03052 3.49068 1.87424C3.78994 1.75783 4.24123 1.61857 5.06885 1.58189C5.96239 1.54202 6.23188 1.53192 8.50425 1.53192H8.50478ZM8.50478 0.000531549C6.19573 0.000531549 5.9071 0.010631 4.99975 0.0504972C4.09612 0.0903633 3.47474 0.236539 2.93681 0.44597C2.37549 0.664968 1.90029 0.95413 1.4288 1.42934C0.953599 1.90135 0.664436 2.37602 0.445438 2.93415C0.236008 3.4758 0.0898318 4.09346 0.0499656 4.99709C0.0100994 5.90764 0 6.19627 0 8.50531C0 10.8144 0.0100994 11.103 0.0499656 12.0103C0.0898318 12.914 0.236008 13.5354 0.445438 14.0733C0.664968 14.6346 0.953599 15.1098 1.4288 15.5813C1.90029 16.0528 2.37549 16.3457 2.93362 16.5615C3.47527 16.7709 4.09293 16.9171 4.99656 16.9569C5.90338 16.9968 6.19255 17.0069 8.50159 17.0069C10.8106 17.0069 11.0998 16.9968 12.0066 16.9569C12.9103 16.9171 13.5316 16.7709 14.0696 16.5615C14.6277 16.3457 15.1029 16.0533 15.5744 15.5813C16.0459 15.1093 16.3388 14.6346 16.5546 14.0765C16.764 13.5348 16.9102 12.9172 16.95 12.0135C16.9899 11.1067 17 10.8176 17 8.5085C17 6.19946 16.9899 5.91082 16.95 5.00347C16.9102 4.09984 16.764 3.47846 16.5546 2.94053C16.3451 2.37549 16.056 1.90082 15.5813 1.4288C15.1098 0.95732 14.6346 0.664436 14.0765 0.448627C13.5348 0.239197 12.9172 0.0930211 12.0135 0.0531549C11.1035 0.0100994 10.8144 0 8.50531 0L8.50478 0.000531549Z" fill="#909598"/>
    <path d="M8.50454 4.13654C6.09291 4.13654 4.13574 6.09317 4.13574 8.50534C4.13574 10.9175 6.09237 12.8741 8.50454 12.8741C10.9167 12.8741 12.8733 10.9175 12.8733 8.50534C12.8733 6.0937 10.9167 4.13654 8.50454 4.13654ZM8.50454 11.339C6.93966 11.339 5.67086 10.0702 5.67086 8.50534C5.67086 6.94046 6.93966 5.67165 8.50454 5.67165C10.0694 5.67165 11.3382 6.94046 11.3382 8.50534C11.3382 10.0702 10.0694 11.339 8.50454 11.339Z" fill="#909598"/>
    <path d="M14.0665 3.96407C14.0665 4.52751 13.6099 4.98412 13.0464 4.98412C12.483 4.98412 12.0264 4.52751 12.0264 3.96407C12.0264 3.40063 12.483 2.94403 13.0464 2.94403C13.6099 2.94403 14.0665 3.40063 14.0665 3.96407Z" fill="#909598"/>
</svg>